<?xml version="1.0" standalone="no"?><!DOCTYPE svg PUBLIC "-//W3C//DTD SVG 1.1//EN" "http://www.w3.org/Graphics/SVG/1.1/DTD/svg11.dtd"><svg t="1634780132046" class="icon" viewBox="0 0 1024 1024" version="1.1" xmlns="http://www.w3.org/2000/svg" p-id="3121" xmlns:xlink="http://www.w3.org/1999/xlink" width="200" height="200"><defs><style type="text/css"></style></defs><path d="M894.290823 702.982706H485.280452L321.553507 866.697371l1.249457-163.714665H129.059378V129.059378h765.231445m0-63.769373H129.059378c-35.072797 0-63.769372 28.696576-63.769373 63.769373v573.923328c0 35.072797 28.696576 63.769372 63.769373 63.769372H245.546416c7.163143 0 12.954033 5.835915 12.899797 12.998035l-1.321088 173.014473c-0.130983 17.161868 13.885242 28.575826 28.507264 28.575825 6.949272 0 14.036691-2.579755 19.804045-8.347108l197.7529-197.738574a29.031197 29.031197 0 0 1 20.527522-8.502651h370.572944c35.072797 0 63.769372-28.696576 63.769372-63.769372V129.059378c0.001023-35.072797-28.695552-63.769372-63.768349-63.769373z" p-id="3122" fill="#1296db"></path><path d="M320.367495 256.598122v127.538745-127.538745m63.769372-63.769372H256.598122v255.07749h127.538745V192.82875zM384.136867 511.674589H256.598122v127.538744h127.538745V511.674589zM575.443961 384.136867H447.90624v63.769373h127.537721v-63.769373zM766.752078 384.136867H639.213333v63.769373h127.538745v-63.769373z" p-id="3123" fill="#1296db"></path></svg>